<?xml version="1.0" encoding="utf-8"?>
<svg
		version="1.1"
		xmlns="http://www.w3.org/2000/svg"
		xmlns:xlink="http://www.w3.org/1999/xlink"
		x="0%" y="0%"
		width="100%" height="100%"
		viewBox="0 0 24.0 24.0"
		enable-background="new 0 0 24.0 24.0"
		xml:space="preserve">
	<path
		fill="#FF00DF"
		fill-opacity="0.996"
		fill-rule="nonzero"
		stroke="#000000"
		stroke-opacity="1.000"
		stroke-width="0.0"
		stroke-linejoin="miter"
		stroke-linecap="square"
		d="M5.10,11.65C4.97,10.46,4.84,9.27,5.23,8.41C5.62,7.56,6.52,7.05,7.49,6.45C8.46,5.86,9.49,5.18,10.56,5.19C11.62,5.19,12.71,5.88,13.77,6.14C14.82,6.39,15.84,6.21,16.55,6.93C17.26,7.64,17.67,9.25,17.73,10.20C17.79,11.15,17.51,11.43,18.04,12.43C18.57,13.43,19.91,15.14,19.04,16.37C18.17,17.60,15.08,18.34,12.68,18.01C10.28,17.68,8.57,16.27,6.86,14.87"/>
</svg>