<?xml version="1.0" encoding="utf-8"?><svg xmlns="http://www.w3.org/2000/svg" xmlns:xlink="http://www.w3.org/1999/xlink" width="2811" height="663" preserveAspectRatio="xMidYMid" viewBox="0 0 2811 663" style="z-index:1;margin-right:-1.99198px;display:block;background-repeat-y:initial;background-repeat-x:initial;background-color:rgb(255, 255, 255);animation-play-state:paused" ><g transform="" style="animation-play-state:paused" ><linearGradient id="lg-0.5695722689144878" x1="0" x2="1" y1="0" y2="0" style="animation-play-state:paused" ><stop stop-color="#ff00ff" offset="0" style="animation-play-state:paused" ></stop>

  
<stop stop-color="#00ffff" offset="1" style="animation-play-state:paused" ></stop></linearGradient>
<path fill="url(#lg-0.5695722689144878)" opacity="0.32" d="M 0 0 L 0 230.796 Q 281.1 350.79 562.2 333.394 T 1124.4 160.24 T 1686.6 309.154 T 2248.8 255.832 T 2811 71.6231 L 2811 0 Z" style="opacity:0.32;animation-play-state:paused" ></path>
<path fill="url(#lg-0.5695722689144878)" opacity="0.32" d="M 0 0 L 0 283.938 Q 281.1 281.957 562.2 259.991 T 1124.4 244.839 T 1686.6 322.2 T 2248.8 268.284 T 2811 126.931 L 2811 0 Z" style="opacity:0.32;animation-play-state:paused" ></path>
<path fill="url(#lg-0.5695722689144878)" opacity="0.32" d="M 0 0 L 0 326.679 Q 281.1 226.68 562.2 204.054 T 1124.4 282.795 T 1686.6 278.857 T 2248.8 248.37 T 2811 110.033 L 2811 0 Z" style="opacity:0.32;animation-play-state:paused" ></path>
<path fill="url(#lg-0.5695722689144878)" opacity="0.32" d="M 0 0 L 0 237.529 Q 281.1 112.68 562.2 79.7971 T 1124.4 239.175 T 1686.6 153.329 T 2248.8 82.1326 T 2811 106.255 L 2811 0 Z" style="opacity:0.32;animation-play-state:paused" ></path>
<path fill="url(#lg-0.5695722689144878)" opacity="0.32" d="M 0 0 L 0 235.061 Q 281.1 274.137 562.2 242.219 T 1124.4 199.558 T 1686.6 274.561 T 2248.8 257.766 T 2811 294.482 L 2811 0 Z" style="opacity:0.32;animation-play-state:paused" ></path>
<path fill="url(#lg-0.5695722689144878)" opacity="0.32" d="M 0 0 L 0 289.072 Q 281.1 172.341 562.2 141.519 T 1124.4 202.419 T 1686.6 149.166 T 2248.8 112.261 T 2811 90.5525 L 2811 0 Z" style="opacity:0.32;animation-play-state:paused" ></path>
<path fill="url(#lg-0.5695722689144878)" opacity="0.32" d="M 0 0 L 0 218.969 Q 281.1 302.463 562.2 279.798 T 1124.4 167.019 T 1686.6 113.832 T 2248.8 201.232 T 2811 159.331 L 2811 0 Z" style="opacity:0.32;animation-play-state:paused" ></path></g></svg>