<?xml version="1.0" encoding="utf-8"?>
<svg
		version="1.1"
		xmlns="http://www.w3.org/2000/svg"
		xmlns:xlink="http://www.w3.org/1999/xlink"
		x="0%" y="0%"
		width="100%" height="100%"
		viewBox="0 0 24.0 24.0"
		enable-background="new 0 0 24.0 24.0"
		xml:space="preserve">
	<path
		fill="#FF00DF"
		fill-opacity="0.996"
		fill-rule="nonzero"
		stroke="#000000"
		stroke-opacity="1.000"
		stroke-width="0.0"
		stroke-linejoin="miter"
		stroke-linecap="square"
		d="M5.97,11.65C5.71,10.77,5.45,9.89,5.77,9.01C6.08,8.13,6.96,7.27,7.94,6.30C8.92,5.33,9.99,4.26,11.03,4.34C12.06,4.41,13.04,5.63,13.82,6.30C14.59,6.98,15.14,7.11,16.03,7.52C16.91,7.93,18.13,8.61,18.48,9.52C18.84,10.43,18.33,11.57,18.04,12.43C17.74,13.30,17.65,13.89,16.93,14.63C16.21,15.38,14.86,16.28,13.32,16.40C11.78,16.51,10.06,15.84,8.35,15.17"/>
</svg>