<?xml version="1.0" height='320' width='1440' standalone="no"?><svg xmlns="http://www.w3.org/2000/svg" viewBox="0 0 1440 320"><path fill="#ff00df" fill-opacity="1" d="M0,0L26.7,32C53.3,64,107,128,160,149.3C213.3,171,267,149,320,144C373.3,139,427,149,480,165.3C533.3,181,587,203,640,192C693.3,181,747,139,800,138.7C853.3,139,907,181,960,197.3C1013.3,213,1067,203,1120,176C1173.3,149,1227,107,1280,96C1333.3,85,1387,107,1413,117.3L1440,128L1440,320L1413.3,320C1386.7,320,1333,320,1280,320C1226.7,320,1173,320,1120,320C1066.7,320,1013,320,960,320C906.7,320,853,320,800,320C746.7,320,693,320,640,320C586.7,320,533,320,480,320C426.7,320,373,320,320,320C266.7,320,213,320,160,320C106.7,320,53,320,27,320L0,320Z"></path></svg>